<?xml version="1.0" encoding="utf-8" standalone="no"?>
<!DOCTYPE svg PUBLIC "-//W3C//DTD SVG 1.1//EN"
  "http://www.w3.org/Graphics/SVG/1.1/DTD/svg11.dtd">
<svg xmlns:xlink="http://www.w3.org/1999/xlink" width="252pt" height="288pt" viewBox="0 0 252 288" xmlns="http://www.w3.org/2000/svg" version="1.1">
 <metadata>
  <rdf:RDF xmlns:dc="http://purl.org/dc/elements/1.1/" xmlns:cc="http://creativecommons.org/ns#" xmlns:rdf="http://www.w3.org/1999/02/22-rdf-syntax-ns#">
   <cc:Work>
    <dc:type rdf:resource="http://purl.org/dc/dcmitype/StillImage"/>
    <dc:date>2026-02-12T11:46:33.834156</dc:date>
    <dc:format>image/svg+xml</dc:format>
    <dc:creator>
     <cc:Agent>
      <dc:title>Matplotlib v3.9.2, https://matplotlib.org/</dc:title>
     </cc:Agent>
    </dc:creator>
   </cc:Work>
  </rdf:RDF>
 </metadata>
 <defs>
  <style type="text/css">*{stroke-linejoin: round; stroke-linecap: butt}</style>
 </defs>
 <g id="figure_1">
  <g id="patch_1">
   <path d="M 0 288 
L 252 288 
L 252 0 
L 0 0 
z
" style="fill: #ffffff"/>
  </g>
  <g id="axes_1">
   <g id="patch_2">
    <path d="M 101.9 246.04 
L 241.2 246.04 
L 241.2 25.44 
L 101.9 25.44 
z
" style="fill: #ffffff"/>
   </g>
   <g id="matplotlib.axis_1">
    <g id="xtick_1">
     <g id="line2d_1">
      <defs>
       <path id="mc8dd8bfee3" d="M 0 0 
L 0 3.5 
" style="stroke: #000000; stroke-width: 0.8"/>
      </defs>
      <g>
       <use xlink:href="#mc8dd8bfee3" x="108.231818" y="246.04" style="stroke: #000000; stroke-width: 0.8"/>
      </g>
     </g>
     <g id="text_1">
      <!-- 0 -->
      <g transform="translate(105.050568 260.638438) scale(0.1 -0.1)">
       <defs>
        <path id="DejaVuSans-30" d="M 2034 4250 
Q 1547 4250 1301 3770 
Q 1056 3291 1056 2328 
Q 1056 1369 1301 889 
Q 1547 409 2034 409 
Q 2525 409 2770 889 
Q 3016 1369 3016 2328 
Q 3016 3291 2770 3770 
Q 2525 4250 2034 4250 
z
M 2034 4750 
Q 2819 4750 3233 4129 
Q 3647 3509 3647 2328 
Q 3647 1150 3233 529 
Q 2819 -91 2034 -91 
Q 1250 -91 836 529 
Q 422 1150 422 2328 
Q 422 3509 836 4129 
Q 1250 4750 2034 4750 
z
" transform="scale(0.015625)"/>
       </defs>
       <use xlink:href="#DejaVuSans-30"/>
      </g>
     </g>
    </g>
    <g id="xtick_2">
     <g id="line2d_2">
      <g>
       <use xlink:href="#mc8dd8bfee3" x="162.582189" y="246.04" style="stroke: #000000; stroke-width: 0.8"/>
      </g>
     </g>
     <g id="text_2">
      <!-- 100 -->
      <g transform="translate(153.038439 260.638438) scale(0.1 -0.1)">
       <defs>
        <path id="DejaVuSans-31" d="M 794 531 
L 1825 531 
L 1825 4091 
L 703 3866 
L 703 4441 
L 1819 4666 
L 2450 4666 
L 2450 531 
L 3481 531 
L 3481 0 
L 794 0 
L 794 531 
z
" transform="scale(0.015625)"/>
       </defs>
       <use xlink:href="#DejaVuSans-31"/>
       <use xlink:href="#DejaVuSans-30" x="63.623047"/>
       <use xlink:href="#DejaVuSans-30" x="127.246094"/>
      </g>
     </g>
    </g>
    <g id="xtick_3">
     <g id="line2d_3">
      <g>
       <use xlink:href="#mc8dd8bfee3" x="216.93256" y="246.04" style="stroke: #000000; stroke-width: 0.8"/>
      </g>
     </g>
     <g id="text_3">
      <!-- 200 -->
      <g transform="translate(207.38881 260.638438) scale(0.1 -0.1)">
       <defs>
        <path id="DejaVuSans-32" d="M 1228 531 
L 3431 531 
L 3431 0 
L 469 0 
L 469 531 
Q 828 903 1448 1529 
Q 2069 2156 2228 2338 
Q 2531 2678 2651 2914 
Q 2772 3150 2772 3378 
Q 2772 3750 2511 3984 
Q 2250 4219 1831 4219 
Q 1534 4219 1204 4116 
Q 875 4013 500 3803 
L 500 4441 
Q 881 4594 1212 4672 
Q 1544 4750 1819 4750 
Q 2544 4750 2975 4387 
Q 3406 4025 3406 3419 
Q 3406 3131 3298 2873 
Q 3191 2616 2906 2266 
Q 2828 2175 2409 1742 
Q 1991 1309 1228 531 
z
" transform="scale(0.015625)"/>
       </defs>
       <use xlink:href="#DejaVuSans-32"/>
       <use xlink:href="#DejaVuSans-30" x="63.623047"/>
       <use xlink:href="#DejaVuSans-30" x="127.246094"/>
      </g>
     </g>
    </g>
    <g id="text_4">
     <!-- Frame index -->
     <g transform="translate(140.700781 274.316562) scale(0.1 -0.1)">
      <defs>
       <path id="DejaVuSans-46" d="M 628 4666 
L 3309 4666 
L 3309 4134 
L 1259 4134 
L 1259 2759 
L 3109 2759 
L 3109 2228 
L 1259 2228 
L 1259 0 
L 628 0 
L 628 4666 
z
" transform="scale(0.015625)"/>
       <path id="DejaVuSans-72" d="M 2631 2963 
Q 2534 3019 2420 3045 
Q 2306 3072 2169 3072 
Q 1681 3072 1420 2755 
Q 1159 2438 1159 1844 
L 1159 0 
L 581 0 
L 581 3500 
L 1159 3500 
L 1159 2956 
Q 1341 3275 1631 3429 
Q 1922 3584 2338 3584 
Q 2397 3584 2469 3576 
Q 2541 3569 2628 3553 
L 2631 2963 
z
" transform="scale(0.015625)"/>
       <path id="DejaVuSans-61" d="M 2194 1759 
Q 1497 1759 1228 1600 
Q 959 1441 959 1056 
Q 959 750 1161 570 
Q 1363 391 1709 391 
Q 2188 391 2477 730 
Q 2766 1069 2766 1631 
L 2766 1759 
L 2194 1759 
z
M 3341 1997 
L 3341 0 
L 2766 0 
L 2766 531 
Q 2569 213 2275 61 
Q 1981 -91 1556 -91 
Q 1019 -91 701 211 
Q 384 513 384 1019 
Q 384 1609 779 1909 
Q 1175 2209 1959 2209 
L 2766 2209 
L 2766 2266 
Q 2766 2663 2505 2880 
Q 2244 3097 1772 3097 
Q 1472 3097 1187 3025 
Q 903 2953 641 2809 
L 641 3341 
Q 956 3463 1253 3523 
Q 1550 3584 1831 3584 
Q 2591 3584 2966 3190 
Q 3341 2797 3341 1997 
z
" transform="scale(0.015625)"/>
       <path id="DejaVuSans-6d" d="M 3328 2828 
Q 3544 3216 3844 3400 
Q 4144 3584 4550 3584 
Q 5097 3584 5394 3201 
Q 5691 2819 5691 2113 
L 5691 0 
L 5113 0 
L 5113 2094 
Q 5113 2597 4934 2840 
Q 4756 3084 4391 3084 
Q 3944 3084 3684 2787 
Q 3425 2491 3425 1978 
L 3425 0 
L 2847 0 
L 2847 2094 
Q 2847 2600 2669 2842 
Q 2491 3084 2119 3084 
Q 1678 3084 1418 2786 
Q 1159 2488 1159 1978 
L 1159 0 
L 581 0 
L 581 3500 
L 1159 3500 
L 1159 2956 
Q 1356 3278 1631 3431 
Q 1906 3584 2284 3584 
Q 2666 3584 2933 3390 
Q 3200 3197 3328 2828 
z
" transform="scale(0.015625)"/>
       <path id="DejaVuSans-65" d="M 3597 1894 
L 3597 1613 
L 953 1613 
Q 991 1019 1311 708 
Q 1631 397 2203 397 
Q 2534 397 2845 478 
Q 3156 559 3463 722 
L 3463 178 
Q 3153 47 2828 -22 
Q 2503 -91 2169 -91 
Q 1331 -91 842 396 
Q 353 884 353 1716 
Q 353 2575 817 3079 
Q 1281 3584 2069 3584 
Q 2775 3584 3186 3129 
Q 3597 2675 3597 1894 
z
M 3022 2063 
Q 3016 2534 2758 2815 
Q 2500 3097 2075 3097 
Q 1594 3097 1305 2825 
Q 1016 2553 972 2059 
L 3022 2063 
z
" transform="scale(0.015625)"/>
       <path id="DejaVuSans-20" transform="scale(0.015625)"/>
       <path id="DejaVuSans-69" d="M 603 3500 
L 1178 3500 
L 1178 0 
L 603 0 
L 603 3500 
z
M 603 4863 
L 1178 4863 
L 1178 4134 
L 603 4134 
L 603 4863 
z
" transform="scale(0.015625)"/>
       <path id="DejaVuSans-6e" d="M 3513 2113 
L 3513 0 
L 2938 0 
L 2938 2094 
Q 2938 2591 2744 2837 
Q 2550 3084 2163 3084 
Q 1697 3084 1428 2787 
Q 1159 2491 1159 1978 
L 1159 0 
L 581 0 
L 581 3500 
L 1159 3500 
L 1159 2956 
Q 1366 3272 1645 3428 
Q 1925 3584 2291 3584 
Q 2894 3584 3203 3211 
Q 3513 2838 3513 2113 
z
" transform="scale(0.015625)"/>
       <path id="DejaVuSans-64" d="M 2906 2969 
L 2906 4863 
L 3481 4863 
L 3481 0 
L 2906 0 
L 2906 525 
Q 2725 213 2448 61 
Q 2172 -91 1784 -91 
Q 1150 -91 751 415 
Q 353 922 353 1747 
Q 353 2572 751 3078 
Q 1150 3584 1784 3584 
Q 2172 3584 2448 3432 
Q 2725 3281 2906 2969 
z
M 947 1747 
Q 947 1113 1208 752 
Q 1469 391 1925 391 
Q 2381 391 2643 752 
Q 2906 1113 2906 1747 
Q 2906 2381 2643 2742 
Q 2381 3103 1925 3103 
Q 1469 3103 1208 2742 
Q 947 2381 947 1747 
z
" transform="scale(0.015625)"/>
       <path id="DejaVuSans-78" d="M 3513 3500 
L 2247 1797 
L 3578 0 
L 2900 0 
L 1881 1375 
L 863 0 
L 184 0 
L 1544 1831 
L 300 3500 
L 978 3500 
L 1906 2253 
L 2834 3500 
L 3513 3500 
z
" transform="scale(0.015625)"/>
      </defs>
      <use xlink:href="#DejaVuSans-46"/>
      <use xlink:href="#DejaVuSans-72" x="50.269531"/>
      <use xlink:href="#DejaVuSans-61" x="91.382812"/>
      <use xlink:href="#DejaVuSans-6d" x="152.662109"/>
      <use xlink:href="#DejaVuSans-65" x="250.074219"/>
      <use xlink:href="#DejaVuSans-20" x="311.597656"/>
      <use xlink:href="#DejaVuSans-69" x="343.384766"/>
      <use xlink:href="#DejaVuSans-6e" x="371.167969"/>
      <use xlink:href="#DejaVuSans-64" x="434.546875"/>
      <use xlink:href="#DejaVuSans-65" x="498.023438"/>
      <use xlink:href="#DejaVuSans-78" x="557.796875"/>
     </g>
    </g>
   </g>
   <g id="matplotlib.axis_2">
    <g id="ytick_1">
     <g id="line2d_4">
      <defs>
       <path id="m35328813ec" d="M 0 0 
L -3.5 0 
" style="stroke: #000000; stroke-width: 0.8"/>
      </defs>
      <g>
       <use xlink:href="#m35328813ec" x="101.9" y="236.012727" style="stroke: #000000; stroke-width: 0.8"/>
      </g>
     </g>
     <g id="text_5">
      <!-- Pick up object -->
      <g transform="translate(25.16875 239.811946) scale(0.1 -0.1)">
       <defs>
        <path id="DejaVuSans-50" d="M 1259 4147 
L 1259 2394 
L 2053 2394 
Q 2494 2394 2734 2622 
Q 2975 2850 2975 3272 
Q 2975 3691 2734 3919 
Q 2494 4147 2053 4147 
L 1259 4147 
z
M 628 4666 
L 2053 4666 
Q 2838 4666 3239 4311 
Q 3641 3956 3641 3272 
Q 3641 2581 3239 2228 
Q 2838 1875 2053 1875 
L 1259 1875 
L 1259 0 
L 628 0 
L 628 4666 
z
" transform="scale(0.015625)"/>
        <path id="DejaVuSans-63" d="M 3122 3366 
L 3122 2828 
Q 2878 2963 2633 3030 
Q 2388 3097 2138 3097 
Q 1578 3097 1268 2742 
Q 959 2388 959 1747 
Q 959 1106 1268 751 
Q 1578 397 2138 397 
Q 2388 397 2633 464 
Q 2878 531 3122 666 
L 3122 134 
Q 2881 22 2623 -34 
Q 2366 -91 2075 -91 
Q 1284 -91 818 406 
Q 353 903 353 1747 
Q 353 2603 823 3093 
Q 1294 3584 2113 3584 
Q 2378 3584 2631 3529 
Q 2884 3475 3122 3366 
z
" transform="scale(0.015625)"/>
        <path id="DejaVuSans-6b" d="M 581 4863 
L 1159 4863 
L 1159 1991 
L 2875 3500 
L 3609 3500 
L 1753 1863 
L 3688 0 
L 2938 0 
L 1159 1709 
L 1159 0 
L 581 0 
L 581 4863 
z
" transform="scale(0.015625)"/>
        <path id="DejaVuSans-75" d="M 544 1381 
L 544 3500 
L 1119 3500 
L 1119 1403 
Q 1119 906 1312 657 
Q 1506 409 1894 409 
Q 2359 409 2629 706 
Q 2900 1003 2900 1516 
L 2900 3500 
L 3475 3500 
L 3475 0 
L 2900 0 
L 2900 538 
Q 2691 219 2414 64 
Q 2138 -91 1772 -91 
Q 1169 -91 856 284 
Q 544 659 544 1381 
z
M 1991 3584 
L 1991 3584 
z
" transform="scale(0.015625)"/>
        <path id="DejaVuSans-70" d="M 1159 525 
L 1159 -1331 
L 581 -1331 
L 581 3500 
L 1159 3500 
L 1159 2969 
Q 1341 3281 1617 3432 
Q 1894 3584 2278 3584 
Q 2916 3584 3314 3078 
Q 3713 2572 3713 1747 
Q 3713 922 3314 415 
Q 2916 -91 2278 -91 
Q 1894 -91 1617 61 
Q 1341 213 1159 525 
z
M 3116 1747 
Q 3116 2381 2855 2742 
Q 2594 3103 2138 3103 
Q 1681 3103 1420 2742 
Q 1159 2381 1159 1747 
Q 1159 1113 1420 752 
Q 1681 391 2138 391 
Q 2594 391 2855 752 
Q 3116 1113 3116 1747 
z
" transform="scale(0.015625)"/>
        <path id="DejaVuSans-6f" d="M 1959 3097 
Q 1497 3097 1228 2736 
Q 959 2375 959 1747 
Q 959 1119 1226 758 
Q 1494 397 1959 397 
Q 2419 397 2687 759 
Q 2956 1122 2956 1747 
Q 2956 2369 2687 2733 
Q 2419 3097 1959 3097 
z
M 1959 3584 
Q 2709 3584 3137 3096 
Q 3566 2609 3566 1747 
Q 3566 888 3137 398 
Q 2709 -91 1959 -91 
Q 1206 -91 779 398 
Q 353 888 353 1747 
Q 353 2609 779 3096 
Q 1206 3584 1959 3584 
z
" transform="scale(0.015625)"/>
        <path id="DejaVuSans-62" d="M 3116 1747 
Q 3116 2381 2855 2742 
Q 2594 3103 2138 3103 
Q 1681 3103 1420 2742 
Q 1159 2381 1159 1747 
Q 1159 1113 1420 752 
Q 1681 391 2138 391 
Q 2594 391 2855 752 
Q 3116 1113 3116 1747 
z
M 1159 2969 
Q 1341 3281 1617 3432 
Q 1894 3584 2278 3584 
Q 2916 3584 3314 3078 
Q 3713 2572 3713 1747 
Q 3713 922 3314 415 
Q 2916 -91 2278 -91 
Q 1894 -91 1617 61 
Q 1341 213 1159 525 
L 1159 0 
L 581 0 
L 581 4863 
L 1159 4863 
L 1159 2969 
z
" transform="scale(0.015625)"/>
        <path id="DejaVuSans-6a" d="M 603 3500 
L 1178 3500 
L 1178 -63 
Q 1178 -731 923 -1031 
Q 669 -1331 103 -1331 
L -116 -1331 
L -116 -844 
L 38 -844 
Q 366 -844 484 -692 
Q 603 -541 603 -63 
L 603 3500 
z
M 603 4863 
L 1178 4863 
L 1178 4134 
L 603 4134 
L 603 4863 
z
" transform="scale(0.015625)"/>
        <path id="DejaVuSans-74" d="M 1172 4494 
L 1172 3500 
L 2356 3500 
L 2356 3053 
L 1172 3053 
L 1172 1153 
Q 1172 725 1289 603 
Q 1406 481 1766 481 
L 2356 481 
L 2356 0 
L 1766 0 
Q 1100 0 847 248 
Q 594 497 594 1153 
L 594 3053 
L 172 3053 
L 172 3500 
L 594 3500 
L 594 4494 
L 1172 4494 
z
" transform="scale(0.015625)"/>
       </defs>
       <use xlink:href="#DejaVuSans-50"/>
       <use xlink:href="#DejaVuSans-69" x="58.052734"/>
       <use xlink:href="#DejaVuSans-63" x="85.835938"/>
       <use xlink:href="#DejaVuSans-6b" x="140.816406"/>
       <use xlink:href="#DejaVuSans-20" x="198.726562"/>
       <use xlink:href="#DejaVuSans-75" x="230.513672"/>
       <use xlink:href="#DejaVuSans-70" x="293.892578"/>
       <use xlink:href="#DejaVuSans-20" x="357.369141"/>
       <use xlink:href="#DejaVuSans-6f" x="389.15625"/>
       <use xlink:href="#DejaVuSans-62" x="450.337891"/>
       <use xlink:href="#DejaVuSans-6a" x="513.814453"/>
       <use xlink:href="#DejaVuSans-65" x="541.597656"/>
       <use xlink:href="#DejaVuSans-63" x="603.121094"/>
       <use xlink:href="#DejaVuSans-74" x="658.101562"/>
      </g>
     </g>
    </g>
    <g id="ytick_2">
     <g id="line2d_5">
      <g>
       <use xlink:href="#m35328813ec" x="101.9" y="35.467273" style="stroke: #000000; stroke-width: 0.8"/>
      </g>
     </g>
     <g id="text_6">
      <!-- Walk -->
      <g transform="translate(70.953125 39.266491) scale(0.1 -0.1)">
       <defs>
        <path id="DejaVuSans-57" d="M 213 4666 
L 850 4666 
L 1831 722 
L 2809 4666 
L 3519 4666 
L 4500 722 
L 5478 4666 
L 6119 4666 
L 4947 0 
L 4153 0 
L 3169 4050 
L 2175 0 
L 1381 0 
L 213 4666 
z
" transform="scale(0.015625)"/>
        <path id="DejaVuSans-6c" d="M 603 4863 
L 1178 4863 
L 1178 0 
L 603 0 
L 603 4863 
z
" transform="scale(0.015625)"/>
       </defs>
       <use xlink:href="#DejaVuSans-57"/>
       <use xlink:href="#DejaVuSans-61" x="92.501953"/>
       <use xlink:href="#DejaVuSans-6c" x="153.78125"/>
       <use xlink:href="#DejaVuSans-6b" x="181.564453"/>
      </g>
     </g>
    </g>
    <g id="text_7">
     <!-- Predicted action -->
     <g transform="translate(19.089063 176.19) rotate(-90) scale(0.1 -0.1)">
      <use xlink:href="#DejaVuSans-50"/>
      <use xlink:href="#DejaVuSans-72" x="58.552734"/>
      <use xlink:href="#DejaVuSans-65" x="97.416016"/>
      <use xlink:href="#DejaVuSans-64" x="158.939453"/>
      <use xlink:href="#DejaVuSans-69" x="222.416016"/>
      <use xlink:href="#DejaVuSans-63" x="250.199219"/>
      <use xlink:href="#DejaVuSans-74" x="305.179688"/>
      <use xlink:href="#DejaVuSans-65" x="344.388672"/>
      <use xlink:href="#DejaVuSans-64" x="405.912109"/>
      <use xlink:href="#DejaVuSans-20" x="469.388672"/>
      <use xlink:href="#DejaVuSans-61" x="501.175781"/>
      <use xlink:href="#DejaVuSans-63" x="562.455078"/>
      <use xlink:href="#DejaVuSans-74" x="617.435547"/>
      <use xlink:href="#DejaVuSans-69" x="656.644531"/>
      <use xlink:href="#DejaVuSans-6f" x="684.427734"/>
      <use xlink:href="#DejaVuSans-6e" x="745.609375"/>
     </g>
    </g>
   </g>
   <g id="line2d_6">
    <path d="M 108.231818 236.012727 
L 139.755033 236.012727 
L 140.298537 35.467273 
L 164.2127 35.467273 
L 164.756204 236.012727 
L 178.8873 236.012727 
L 179.430804 35.467273 
L 234.868182 35.467273 
L 234.868182 35.467273 
" clip-path="url(#pd29e5b2d0b)" style="fill: none; stroke: #1f77b4; stroke-width: 1.5; stroke-linecap: square"/>
    <defs>
     <path id="m4542516fc3" d="M 0 3 
C 0.795609 3 1.55874 2.683901 2.12132 2.12132 
C 2.683901 1.55874 3 0.795609 3 0 
C 3 -0.795609 2.683901 -1.55874 2.12132 -2.12132 
C 1.55874 -2.683901 0.795609 -3 0 -3 
C -0.795609 -3 -1.55874 -2.683901 -2.12132 -2.12132 
C -2.683901 -1.55874 -3 -0.795609 -3 0 
C -3 0.795609 -2.683901 1.55874 -2.12132 2.12132 
C -1.55874 2.683901 -0.795609 3 0 3 
z
" style="stroke: #1f77b4"/>
    </defs>
    <g clip-path="url(#pd29e5b2d0b)">
     <use xlink:href="#m4542516fc3" x="108.231818" y="236.012727" style="fill: #1f77b4; stroke: #1f77b4"/>
     <use xlink:href="#m4542516fc3" x="108.775322" y="236.012727" style="fill: #1f77b4; stroke: #1f77b4"/>
     <use xlink:href="#m4542516fc3" x="109.318826" y="236.012727" style="fill: #1f77b4; stroke: #1f77b4"/>
     <use xlink:href="#m4542516fc3" x="109.862329" y="236.012727" style="fill: #1f77b4; stroke: #1f77b4"/>
     <use xlink:href="#m4542516fc3" x="110.405833" y="236.012727" style="fill: #1f77b4; stroke: #1f77b4"/>
     <use xlink:href="#m4542516fc3" x="110.949337" y="236.012727" style="fill: #1f77b4; stroke: #1f77b4"/>
     <use xlink:href="#m4542516fc3" x="111.49284" y="236.012727" style="fill: #1f77b4; stroke: #1f77b4"/>
     <use xlink:href="#m4542516fc3" x="112.036344" y="236.012727" style="fill: #1f77b4; stroke: #1f77b4"/>
     <use xlink:href="#m4542516fc3" x="112.579848" y="236.012727" style="fill: #1f77b4; stroke: #1f77b4"/>
     <use xlink:href="#m4542516fc3" x="113.123352" y="236.012727" style="fill: #1f77b4; stroke: #1f77b4"/>
     <use xlink:href="#m4542516fc3" x="113.666855" y="236.012727" style="fill: #1f77b4; stroke: #1f77b4"/>
     <use xlink:href="#m4542516fc3" x="114.210359" y="236.012727" style="fill: #1f77b4; stroke: #1f77b4"/>
     <use xlink:href="#m4542516fc3" x="114.753863" y="236.012727" style="fill: #1f77b4; stroke: #1f77b4"/>
     <use xlink:href="#m4542516fc3" x="115.297366" y="236.012727" style="fill: #1f77b4; stroke: #1f77b4"/>
     <use xlink:href="#m4542516fc3" x="115.84087" y="236.012727" style="fill: #1f77b4; stroke: #1f77b4"/>
     <use xlink:href="#m4542516fc3" x="116.384374" y="236.012727" style="fill: #1f77b4; stroke: #1f77b4"/>
     <use xlink:href="#m4542516fc3" x="116.927877" y="236.012727" style="fill: #1f77b4; stroke: #1f77b4"/>
     <use xlink:href="#m4542516fc3" x="117.471381" y="236.012727" style="fill: #1f77b4; stroke: #1f77b4"/>
     <use xlink:href="#m4542516fc3" x="118.014885" y="236.012727" style="fill: #1f77b4; stroke: #1f77b4"/>
     <use xlink:href="#m4542516fc3" x="118.558389" y="236.012727" style="fill: #1f77b4; stroke: #1f77b4"/>
     <use xlink:href="#m4542516fc3" x="119.101892" y="236.012727" style="fill: #1f77b4; stroke: #1f77b4"/>
     <use xlink:href="#m4542516fc3" x="119.645396" y="236.012727" style="fill: #1f77b4; stroke: #1f77b4"/>
     <use xlink:href="#m4542516fc3" x="120.1889" y="236.012727" style="fill: #1f77b4; stroke: #1f77b4"/>
     <use xlink:href="#m4542516fc3" x="120.732403" y="236.012727" style="fill: #1f77b4; stroke: #1f77b4"/>
     <use xlink:href="#m4542516fc3" x="121.275907" y="236.012727" style="fill: #1f77b4; stroke: #1f77b4"/>
     <use xlink:href="#m4542516fc3" x="121.819411" y="236.012727" style="fill: #1f77b4; stroke: #1f77b4"/>
     <use xlink:href="#m4542516fc3" x="122.362915" y="236.012727" style="fill: #1f77b4; stroke: #1f77b4"/>
     <use xlink:href="#m4542516fc3" x="122.906418" y="236.012727" style="fill: #1f77b4; stroke: #1f77b4"/>
     <use xlink:href="#m4542516fc3" x="123.449922" y="236.012727" style="fill: #1f77b4; stroke: #1f77b4"/>
     <use xlink:href="#m4542516fc3" x="123.993426" y="236.012727" style="fill: #1f77b4; stroke: #1f77b4"/>
     <use xlink:href="#m4542516fc3" x="124.536929" y="236.012727" style="fill: #1f77b4; stroke: #1f77b4"/>
     <use xlink:href="#m4542516fc3" x="125.080433" y="236.012727" style="fill: #1f77b4; stroke: #1f77b4"/>
     <use xlink:href="#m4542516fc3" x="125.623937" y="236.012727" style="fill: #1f77b4; stroke: #1f77b4"/>
     <use xlink:href="#m4542516fc3" x="126.16744" y="236.012727" style="fill: #1f77b4; stroke: #1f77b4"/>
     <use xlink:href="#m4542516fc3" x="126.710944" y="236.012727" style="fill: #1f77b4; stroke: #1f77b4"/>
     <use xlink:href="#m4542516fc3" x="127.254448" y="236.012727" style="fill: #1f77b4; stroke: #1f77b4"/>
     <use xlink:href="#m4542516fc3" x="127.797952" y="236.012727" style="fill: #1f77b4; stroke: #1f77b4"/>
     <use xlink:href="#m4542516fc3" x="128.341455" y="236.012727" style="fill: #1f77b4; stroke: #1f77b4"/>
     <use xlink:href="#m4542516fc3" x="128.884959" y="236.012727" style="fill: #1f77b4; stroke: #1f77b4"/>
     <use xlink:href="#m4542516fc3" x="129.428463" y="236.012727" style="fill: #1f77b4; stroke: #1f77b4"/>
     <use xlink:href="#m4542516fc3" x="129.971966" y="236.012727" style="fill: #1f77b4; stroke: #1f77b4"/>
     <use xlink:href="#m4542516fc3" x="130.51547" y="236.012727" style="fill: #1f77b4; stroke: #1f77b4"/>
     <use xlink:href="#m4542516fc3" x="131.058974" y="236.012727" style="fill: #1f77b4; stroke: #1f77b4"/>
     <use xlink:href="#m4542516fc3" x="131.602478" y="236.012727" style="fill: #1f77b4; stroke: #1f77b4"/>
     <use xlink:href="#m4542516fc3" x="132.145981" y="236.012727" style="fill: #1f77b4; stroke: #1f77b4"/>
     <use xlink:href="#m4542516fc3" x="132.689485" y="236.012727" style="fill: #1f77b4; stroke: #1f77b4"/>
     <use xlink:href="#m4542516fc3" x="133.232989" y="236.012727" style="fill: #1f77b4; stroke: #1f77b4"/>
     <use xlink:href="#m4542516fc3" x="133.776492" y="236.012727" style="fill: #1f77b4; stroke: #1f77b4"/>
     <use xlink:href="#m4542516fc3" x="134.319996" y="236.012727" style="fill: #1f77b4; stroke: #1f77b4"/>
     <use xlink:href="#m4542516fc3" x="134.8635" y="236.012727" style="fill: #1f77b4; stroke: #1f77b4"/>
     <use xlink:href="#m4542516fc3" x="135.407004" y="236.012727" style="fill: #1f77b4; stroke: #1f77b4"/>
     <use xlink:href="#m4542516fc3" x="135.950507" y="236.012727" style="fill: #1f77b4; stroke: #1f77b4"/>
     <use xlink:href="#m4542516fc3" x="136.494011" y="236.012727" style="fill: #1f77b4; stroke: #1f77b4"/>
     <use xlink:href="#m4542516fc3" x="137.037515" y="236.012727" style="fill: #1f77b4; stroke: #1f77b4"/>
     <use xlink:href="#m4542516fc3" x="137.581018" y="236.012727" style="fill: #1f77b4; stroke: #1f77b4"/>
     <use xlink:href="#m4542516fc3" x="138.124522" y="236.012727" style="fill: #1f77b4; stroke: #1f77b4"/>
     <use xlink:href="#m4542516fc3" x="138.668026" y="236.012727" style="fill: #1f77b4; stroke: #1f77b4"/>
     <use xlink:href="#m4542516fc3" x="139.211529" y="236.012727" style="fill: #1f77b4; stroke: #1f77b4"/>
     <use xlink:href="#m4542516fc3" x="139.755033" y="236.012727" style="fill: #1f77b4; stroke: #1f77b4"/>
     <use xlink:href="#m4542516fc3" x="140.298537" y="35.467273" style="fill: #1f77b4; stroke: #1f77b4"/>
     <use xlink:href="#m4542516fc3" x="140.842041" y="35.467273" style="fill: #1f77b4; stroke: #1f77b4"/>
     <use xlink:href="#m4542516fc3" x="141.385544" y="35.467273" style="fill: #1f77b4; stroke: #1f77b4"/>
     <use xlink:href="#m4542516fc3" x="141.929048" y="35.467273" style="fill: #1f77b4; stroke: #1f77b4"/>
     <use xlink:href="#m4542516fc3" x="142.472552" y="35.467273" style="fill: #1f77b4; stroke: #1f77b4"/>
     <use xlink:href="#m4542516fc3" x="143.016055" y="35.467273" style="fill: #1f77b4; stroke: #1f77b4"/>
     <use xlink:href="#m4542516fc3" x="143.559559" y="35.467273" style="fill: #1f77b4; stroke: #1f77b4"/>
     <use xlink:href="#m4542516fc3" x="144.103063" y="35.467273" style="fill: #1f77b4; stroke: #1f77b4"/>
     <use xlink:href="#m4542516fc3" x="144.646567" y="35.467273" style="fill: #1f77b4; stroke: #1f77b4"/>
     <use xlink:href="#m4542516fc3" x="145.19007" y="35.467273" style="fill: #1f77b4; stroke: #1f77b4"/>
     <use xlink:href="#m4542516fc3" x="145.733574" y="35.467273" style="fill: #1f77b4; stroke: #1f77b4"/>
     <use xlink:href="#m4542516fc3" x="146.277078" y="35.467273" style="fill: #1f77b4; stroke: #1f77b4"/>
     <use xlink:href="#m4542516fc3" x="146.820581" y="35.467273" style="fill: #1f77b4; stroke: #1f77b4"/>
     <use xlink:href="#m4542516fc3" x="147.364085" y="35.467273" style="fill: #1f77b4; stroke: #1f77b4"/>
     <use xlink:href="#m4542516fc3" x="147.907589" y="35.467273" style="fill: #1f77b4; stroke: #1f77b4"/>
     <use xlink:href="#m4542516fc3" x="148.451092" y="35.467273" style="fill: #1f77b4; stroke: #1f77b4"/>
     <use xlink:href="#m4542516fc3" x="148.994596" y="35.467273" style="fill: #1f77b4; stroke: #1f77b4"/>
     <use xlink:href="#m4542516fc3" x="149.5381" y="35.467273" style="fill: #1f77b4; stroke: #1f77b4"/>
     <use xlink:href="#m4542516fc3" x="150.081604" y="35.467273" style="fill: #1f77b4; stroke: #1f77b4"/>
     <use xlink:href="#m4542516fc3" x="150.625107" y="35.467273" style="fill: #1f77b4; stroke: #1f77b4"/>
     <use xlink:href="#m4542516fc3" x="151.168611" y="35.467273" style="fill: #1f77b4; stroke: #1f77b4"/>
     <use xlink:href="#m4542516fc3" x="151.712115" y="35.467273" style="fill: #1f77b4; stroke: #1f77b4"/>
     <use xlink:href="#m4542516fc3" x="152.255618" y="35.467273" style="fill: #1f77b4; stroke: #1f77b4"/>
     <use xlink:href="#m4542516fc3" x="152.799122" y="35.467273" style="fill: #1f77b4; stroke: #1f77b4"/>
     <use xlink:href="#m4542516fc3" x="153.342626" y="35.467273" style="fill: #1f77b4; stroke: #1f77b4"/>
     <use xlink:href="#m4542516fc3" x="153.88613" y="35.467273" style="fill: #1f77b4; stroke: #1f77b4"/>
     <use xlink:href="#m4542516fc3" x="154.429633" y="35.467273" style="fill: #1f77b4; stroke: #1f77b4"/>
     <use xlink:href="#m4542516fc3" x="154.973137" y="35.467273" style="fill: #1f77b4; stroke: #1f77b4"/>
     <use xlink:href="#m4542516fc3" x="155.516641" y="35.467273" style="fill: #1f77b4; stroke: #1f77b4"/>
     <use xlink:href="#m4542516fc3" x="156.060144" y="35.467273" style="fill: #1f77b4; stroke: #1f77b4"/>
     <use xlink:href="#m4542516fc3" x="156.603648" y="35.467273" style="fill: #1f77b4; stroke: #1f77b4"/>
     <use xlink:href="#m4542516fc3" x="157.147152" y="35.467273" style="fill: #1f77b4; stroke: #1f77b4"/>
     <use xlink:href="#m4542516fc3" x="157.690655" y="35.467273" style="fill: #1f77b4; stroke: #1f77b4"/>
     <use xlink:href="#m4542516fc3" x="158.234159" y="35.467273" style="fill: #1f77b4; stroke: #1f77b4"/>
     <use xlink:href="#m4542516fc3" x="158.777663" y="35.467273" style="fill: #1f77b4; stroke: #1f77b4"/>
     <use xlink:href="#m4542516fc3" x="159.321167" y="35.467273" style="fill: #1f77b4; stroke: #1f77b4"/>
     <use xlink:href="#m4542516fc3" x="159.86467" y="35.467273" style="fill: #1f77b4; stroke: #1f77b4"/>
     <use xlink:href="#m4542516fc3" x="160.408174" y="35.467273" style="fill: #1f77b4; stroke: #1f77b4"/>
     <use xlink:href="#m4542516fc3" x="160.951678" y="35.467273" style="fill: #1f77b4; stroke: #1f77b4"/>
     <use xlink:href="#m4542516fc3" x="161.495181" y="35.467273" style="fill: #1f77b4; stroke: #1f77b4"/>
     <use xlink:href="#m4542516fc3" x="162.038685" y="35.467273" style="fill: #1f77b4; stroke: #1f77b4"/>
     <use xlink:href="#m4542516fc3" x="162.582189" y="35.467273" style="fill: #1f77b4; stroke: #1f77b4"/>
     <use xlink:href="#m4542516fc3" x="163.125693" y="35.467273" style="fill: #1f77b4; stroke: #1f77b4"/>
     <use xlink:href="#m4542516fc3" x="163.669196" y="35.467273" style="fill: #1f77b4; stroke: #1f77b4"/>
     <use xlink:href="#m4542516fc3" x="164.2127" y="35.467273" style="fill: #1f77b4; stroke: #1f77b4"/>
     <use xlink:href="#m4542516fc3" x="164.756204" y="236.012727" style="fill: #1f77b4; stroke: #1f77b4"/>
     <use xlink:href="#m4542516fc3" x="165.299707" y="236.012727" style="fill: #1f77b4; stroke: #1f77b4"/>
     <use xlink:href="#m4542516fc3" x="165.843211" y="236.012727" style="fill: #1f77b4; stroke: #1f77b4"/>
     <use xlink:href="#m4542516fc3" x="166.386715" y="236.012727" style="fill: #1f77b4; stroke: #1f77b4"/>
     <use xlink:href="#m4542516fc3" x="166.930218" y="236.012727" style="fill: #1f77b4; stroke: #1f77b4"/>
     <use xlink:href="#m4542516fc3" x="167.473722" y="236.012727" style="fill: #1f77b4; stroke: #1f77b4"/>
     <use xlink:href="#m4542516fc3" x="168.017226" y="236.012727" style="fill: #1f77b4; stroke: #1f77b4"/>
     <use xlink:href="#m4542516fc3" x="168.56073" y="236.012727" style="fill: #1f77b4; stroke: #1f77b4"/>
     <use xlink:href="#m4542516fc3" x="169.104233" y="236.012727" style="fill: #1f77b4; stroke: #1f77b4"/>
     <use xlink:href="#m4542516fc3" x="169.647737" y="236.012727" style="fill: #1f77b4; stroke: #1f77b4"/>
     <use xlink:href="#m4542516fc3" x="170.191241" y="236.012727" style="fill: #1f77b4; stroke: #1f77b4"/>
     <use xlink:href="#m4542516fc3" x="170.734744" y="236.012727" style="fill: #1f77b4; stroke: #1f77b4"/>
     <use xlink:href="#m4542516fc3" x="171.278248" y="236.012727" style="fill: #1f77b4; stroke: #1f77b4"/>
     <use xlink:href="#m4542516fc3" x="171.821752" y="236.012727" style="fill: #1f77b4; stroke: #1f77b4"/>
     <use xlink:href="#m4542516fc3" x="172.365256" y="236.012727" style="fill: #1f77b4; stroke: #1f77b4"/>
     <use xlink:href="#m4542516fc3" x="172.908759" y="236.012727" style="fill: #1f77b4; stroke: #1f77b4"/>
     <use xlink:href="#m4542516fc3" x="173.452263" y="236.012727" style="fill: #1f77b4; stroke: #1f77b4"/>
     <use xlink:href="#m4542516fc3" x="173.995767" y="236.012727" style="fill: #1f77b4; stroke: #1f77b4"/>
     <use xlink:href="#m4542516fc3" x="174.53927" y="236.012727" style="fill: #1f77b4; stroke: #1f77b4"/>
     <use xlink:href="#m4542516fc3" x="175.082774" y="236.012727" style="fill: #1f77b4; stroke: #1f77b4"/>
     <use xlink:href="#m4542516fc3" x="175.626278" y="236.012727" style="fill: #1f77b4; stroke: #1f77b4"/>
     <use xlink:href="#m4542516fc3" x="176.169782" y="236.012727" style="fill: #1f77b4; stroke: #1f77b4"/>
     <use xlink:href="#m4542516fc3" x="176.713285" y="236.012727" style="fill: #1f77b4; stroke: #1f77b4"/>
     <use xlink:href="#m4542516fc3" x="177.256789" y="236.012727" style="fill: #1f77b4; stroke: #1f77b4"/>
     <use xlink:href="#m4542516fc3" x="177.800293" y="236.012727" style="fill: #1f77b4; stroke: #1f77b4"/>
     <use xlink:href="#m4542516fc3" x="178.343796" y="236.012727" style="fill: #1f77b4; stroke: #1f77b4"/>
     <use xlink:href="#m4542516fc3" x="178.8873" y="236.012727" style="fill: #1f77b4; stroke: #1f77b4"/>
     <use xlink:href="#m4542516fc3" x="179.430804" y="35.467273" style="fill: #1f77b4; stroke: #1f77b4"/>
     <use xlink:href="#m4542516fc3" x="179.974307" y="35.467273" style="fill: #1f77b4; stroke: #1f77b4"/>
     <use xlink:href="#m4542516fc3" x="180.517811" y="35.467273" style="fill: #1f77b4; stroke: #1f77b4"/>
     <use xlink:href="#m4542516fc3" x="181.061315" y="35.467273" style="fill: #1f77b4; stroke: #1f77b4"/>
     <use xlink:href="#m4542516fc3" x="181.604819" y="35.467273" style="fill: #1f77b4; stroke: #1f77b4"/>
     <use xlink:href="#m4542516fc3" x="182.148322" y="35.467273" style="fill: #1f77b4; stroke: #1f77b4"/>
     <use xlink:href="#m4542516fc3" x="182.691826" y="35.467273" style="fill: #1f77b4; stroke: #1f77b4"/>
     <use xlink:href="#m4542516fc3" x="183.23533" y="35.467273" style="fill: #1f77b4; stroke: #1f77b4"/>
     <use xlink:href="#m4542516fc3" x="183.778833" y="35.467273" style="fill: #1f77b4; stroke: #1f77b4"/>
     <use xlink:href="#m4542516fc3" x="184.322337" y="35.467273" style="fill: #1f77b4; stroke: #1f77b4"/>
     <use xlink:href="#m4542516fc3" x="184.865841" y="35.467273" style="fill: #1f77b4; stroke: #1f77b4"/>
     <use xlink:href="#m4542516fc3" x="185.409345" y="35.467273" style="fill: #1f77b4; stroke: #1f77b4"/>
     <use xlink:href="#m4542516fc3" x="185.952848" y="35.467273" style="fill: #1f77b4; stroke: #1f77b4"/>
     <use xlink:href="#m4542516fc3" x="186.496352" y="35.467273" style="fill: #1f77b4; stroke: #1f77b4"/>
     <use xlink:href="#m4542516fc3" x="187.039856" y="35.467273" style="fill: #1f77b4; stroke: #1f77b4"/>
     <use xlink:href="#m4542516fc3" x="187.583359" y="35.467273" style="fill: #1f77b4; stroke: #1f77b4"/>
     <use xlink:href="#m4542516fc3" x="188.126863" y="35.467273" style="fill: #1f77b4; stroke: #1f77b4"/>
     <use xlink:href="#m4542516fc3" x="188.670367" y="35.467273" style="fill: #1f77b4; stroke: #1f77b4"/>
     <use xlink:href="#m4542516fc3" x="189.21387" y="35.467273" style="fill: #1f77b4; stroke: #1f77b4"/>
     <use xlink:href="#m4542516fc3" x="189.757374" y="35.467273" style="fill: #1f77b4; stroke: #1f77b4"/>
     <use xlink:href="#m4542516fc3" x="190.300878" y="35.467273" style="fill: #1f77b4; stroke: #1f77b4"/>
     <use xlink:href="#m4542516fc3" x="190.844382" y="35.467273" style="fill: #1f77b4; stroke: #1f77b4"/>
     <use xlink:href="#m4542516fc3" x="191.387885" y="35.467273" style="fill: #1f77b4; stroke: #1f77b4"/>
     <use xlink:href="#m4542516fc3" x="191.931389" y="35.467273" style="fill: #1f77b4; stroke: #1f77b4"/>
     <use xlink:href="#m4542516fc3" x="192.474893" y="35.467273" style="fill: #1f77b4; stroke: #1f77b4"/>
     <use xlink:href="#m4542516fc3" x="193.018396" y="35.467273" style="fill: #1f77b4; stroke: #1f77b4"/>
     <use xlink:href="#m4542516fc3" x="193.5619" y="35.467273" style="fill: #1f77b4; stroke: #1f77b4"/>
     <use xlink:href="#m4542516fc3" x="194.105404" y="35.467273" style="fill: #1f77b4; stroke: #1f77b4"/>
     <use xlink:href="#m4542516fc3" x="194.648908" y="35.467273" style="fill: #1f77b4; stroke: #1f77b4"/>
     <use xlink:href="#m4542516fc3" x="195.192411" y="35.467273" style="fill: #1f77b4; stroke: #1f77b4"/>
     <use xlink:href="#m4542516fc3" x="195.735915" y="35.467273" style="fill: #1f77b4; stroke: #1f77b4"/>
     <use xlink:href="#m4542516fc3" x="196.279419" y="35.467273" style="fill: #1f77b4; stroke: #1f77b4"/>
     <use xlink:href="#m4542516fc3" x="196.822922" y="35.467273" style="fill: #1f77b4; stroke: #1f77b4"/>
     <use xlink:href="#m4542516fc3" x="197.366426" y="35.467273" style="fill: #1f77b4; stroke: #1f77b4"/>
     <use xlink:href="#m4542516fc3" x="197.90993" y="35.467273" style="fill: #1f77b4; stroke: #1f77b4"/>
     <use xlink:href="#m4542516fc3" x="198.453433" y="35.467273" style="fill: #1f77b4; stroke: #1f77b4"/>
     <use xlink:href="#m4542516fc3" x="198.996937" y="35.467273" style="fill: #1f77b4; stroke: #1f77b4"/>
     <use xlink:href="#m4542516fc3" x="199.540441" y="35.467273" style="fill: #1f77b4; stroke: #1f77b4"/>
     <use xlink:href="#m4542516fc3" x="200.083945" y="35.467273" style="fill: #1f77b4; stroke: #1f77b4"/>
     <use xlink:href="#m4542516fc3" x="200.627448" y="35.467273" style="fill: #1f77b4; stroke: #1f77b4"/>
     <use xlink:href="#m4542516fc3" x="201.170952" y="35.467273" style="fill: #1f77b4; stroke: #1f77b4"/>
     <use xlink:href="#m4542516fc3" x="201.714456" y="35.467273" style="fill: #1f77b4; stroke: #1f77b4"/>
     <use xlink:href="#m4542516fc3" x="202.257959" y="35.467273" style="fill: #1f77b4; stroke: #1f77b4"/>
     <use xlink:href="#m4542516fc3" x="202.801463" y="35.467273" style="fill: #1f77b4; stroke: #1f77b4"/>
     <use xlink:href="#m4542516fc3" x="203.344967" y="35.467273" style="fill: #1f77b4; stroke: #1f77b4"/>
     <use xlink:href="#m4542516fc3" x="203.888471" y="35.467273" style="fill: #1f77b4; stroke: #1f77b4"/>
     <use xlink:href="#m4542516fc3" x="204.431974" y="35.467273" style="fill: #1f77b4; stroke: #1f77b4"/>
     <use xlink:href="#m4542516fc3" x="204.975478" y="35.467273" style="fill: #1f77b4; stroke: #1f77b4"/>
     <use xlink:href="#m4542516fc3" x="205.518982" y="35.467273" style="fill: #1f77b4; stroke: #1f77b4"/>
     <use xlink:href="#m4542516fc3" x="206.062485" y="35.467273" style="fill: #1f77b4; stroke: #1f77b4"/>
     <use xlink:href="#m4542516fc3" x="206.605989" y="35.467273" style="fill: #1f77b4; stroke: #1f77b4"/>
     <use xlink:href="#m4542516fc3" x="207.149493" y="35.467273" style="fill: #1f77b4; stroke: #1f77b4"/>
     <use xlink:href="#m4542516fc3" x="207.692996" y="35.467273" style="fill: #1f77b4; stroke: #1f77b4"/>
     <use xlink:href="#m4542516fc3" x="208.2365" y="35.467273" style="fill: #1f77b4; stroke: #1f77b4"/>
     <use xlink:href="#m4542516fc3" x="208.780004" y="35.467273" style="fill: #1f77b4; stroke: #1f77b4"/>
     <use xlink:href="#m4542516fc3" x="209.323508" y="35.467273" style="fill: #1f77b4; stroke: #1f77b4"/>
     <use xlink:href="#m4542516fc3" x="209.867011" y="35.467273" style="fill: #1f77b4; stroke: #1f77b4"/>
     <use xlink:href="#m4542516fc3" x="210.410515" y="35.467273" style="fill: #1f77b4; stroke: #1f77b4"/>
     <use xlink:href="#m4542516fc3" x="210.954019" y="35.467273" style="fill: #1f77b4; stroke: #1f77b4"/>
     <use xlink:href="#m4542516fc3" x="211.497522" y="35.467273" style="fill: #1f77b4; stroke: #1f77b4"/>
     <use xlink:href="#m4542516fc3" x="212.041026" y="35.467273" style="fill: #1f77b4; stroke: #1f77b4"/>
     <use xlink:href="#m4542516fc3" x="212.58453" y="35.467273" style="fill: #1f77b4; stroke: #1f77b4"/>
     <use xlink:href="#m4542516fc3" x="213.128034" y="35.467273" style="fill: #1f77b4; stroke: #1f77b4"/>
     <use xlink:href="#m4542516fc3" x="213.671537" y="35.467273" style="fill: #1f77b4; stroke: #1f77b4"/>
     <use xlink:href="#m4542516fc3" x="214.215041" y="35.467273" style="fill: #1f77b4; stroke: #1f77b4"/>
     <use xlink:href="#m4542516fc3" x="214.758545" y="35.467273" style="fill: #1f77b4; stroke: #1f77b4"/>
     <use xlink:href="#m4542516fc3" x="215.302048" y="35.467273" style="fill: #1f77b4; stroke: #1f77b4"/>
     <use xlink:href="#m4542516fc3" x="215.845552" y="35.467273" style="fill: #1f77b4; stroke: #1f77b4"/>
     <use xlink:href="#m4542516fc3" x="216.389056" y="35.467273" style="fill: #1f77b4; stroke: #1f77b4"/>
     <use xlink:href="#m4542516fc3" x="216.93256" y="35.467273" style="fill: #1f77b4; stroke: #1f77b4"/>
     <use xlink:href="#m4542516fc3" x="217.476063" y="35.467273" style="fill: #1f77b4; stroke: #1f77b4"/>
     <use xlink:href="#m4542516fc3" x="218.019567" y="35.467273" style="fill: #1f77b4; stroke: #1f77b4"/>
     <use xlink:href="#m4542516fc3" x="218.563071" y="35.467273" style="fill: #1f77b4; stroke: #1f77b4"/>
     <use xlink:href="#m4542516fc3" x="219.106574" y="35.467273" style="fill: #1f77b4; stroke: #1f77b4"/>
     <use xlink:href="#m4542516fc3" x="219.650078" y="35.467273" style="fill: #1f77b4; stroke: #1f77b4"/>
     <use xlink:href="#m4542516fc3" x="220.193582" y="35.467273" style="fill: #1f77b4; stroke: #1f77b4"/>
     <use xlink:href="#m4542516fc3" x="220.737085" y="35.467273" style="fill: #1f77b4; stroke: #1f77b4"/>
     <use xlink:href="#m4542516fc3" x="221.280589" y="35.467273" style="fill: #1f77b4; stroke: #1f77b4"/>
     <use xlink:href="#m4542516fc3" x="221.824093" y="35.467273" style="fill: #1f77b4; stroke: #1f77b4"/>
     <use xlink:href="#m4542516fc3" x="222.367597" y="35.467273" style="fill: #1f77b4; stroke: #1f77b4"/>
     <use xlink:href="#m4542516fc3" x="222.9111" y="35.467273" style="fill: #1f77b4; stroke: #1f77b4"/>
     <use xlink:href="#m4542516fc3" x="223.454604" y="35.467273" style="fill: #1f77b4; stroke: #1f77b4"/>
     <use xlink:href="#m4542516fc3" x="223.998108" y="35.467273" style="fill: #1f77b4; stroke: #1f77b4"/>
     <use xlink:href="#m4542516fc3" x="224.541611" y="35.467273" style="fill: #1f77b4; stroke: #1f77b4"/>
     <use xlink:href="#m4542516fc3" x="225.085115" y="35.467273" style="fill: #1f77b4; stroke: #1f77b4"/>
     <use xlink:href="#m4542516fc3" x="225.628619" y="35.467273" style="fill: #1f77b4; stroke: #1f77b4"/>
     <use xlink:href="#m4542516fc3" x="226.172123" y="35.467273" style="fill: #1f77b4; stroke: #1f77b4"/>
     <use xlink:href="#m4542516fc3" x="226.715626" y="35.467273" style="fill: #1f77b4; stroke: #1f77b4"/>
     <use xlink:href="#m4542516fc3" x="227.25913" y="35.467273" style="fill: #1f77b4; stroke: #1f77b4"/>
     <use xlink:href="#m4542516fc3" x="227.802634" y="35.467273" style="fill: #1f77b4; stroke: #1f77b4"/>
     <use xlink:href="#m4542516fc3" x="228.346137" y="35.467273" style="fill: #1f77b4; stroke: #1f77b4"/>
     <use xlink:href="#m4542516fc3" x="228.889641" y="35.467273" style="fill: #1f77b4; stroke: #1f77b4"/>
     <use xlink:href="#m4542516fc3" x="229.433145" y="35.467273" style="fill: #1f77b4; stroke: #1f77b4"/>
     <use xlink:href="#m4542516fc3" x="229.976648" y="35.467273" style="fill: #1f77b4; stroke: #1f77b4"/>
     <use xlink:href="#m4542516fc3" x="230.520152" y="35.467273" style="fill: #1f77b4; stroke: #1f77b4"/>
     <use xlink:href="#m4542516fc3" x="231.063656" y="35.467273" style="fill: #1f77b4; stroke: #1f77b4"/>
     <use xlink:href="#m4542516fc3" x="231.60716" y="35.467273" style="fill: #1f77b4; stroke: #1f77b4"/>
     <use xlink:href="#m4542516fc3" x="232.150663" y="35.467273" style="fill: #1f77b4; stroke: #1f77b4"/>
     <use xlink:href="#m4542516fc3" x="232.694167" y="35.467273" style="fill: #1f77b4; stroke: #1f77b4"/>
     <use xlink:href="#m4542516fc3" x="233.237671" y="35.467273" style="fill: #1f77b4; stroke: #1f77b4"/>
     <use xlink:href="#m4542516fc3" x="233.781174" y="35.467273" style="fill: #1f77b4; stroke: #1f77b4"/>
     <use xlink:href="#m4542516fc3" x="234.324678" y="35.467273" style="fill: #1f77b4; stroke: #1f77b4"/>
     <use xlink:href="#m4542516fc3" x="234.868182" y="35.467273" style="fill: #1f77b4; stroke: #1f77b4"/>
    </g>
   </g>
   <g id="patch_3">
    <path d="M 101.9 246.04 
L 101.9 25.44 
" style="fill: none; stroke: #000000; stroke-width: 0.8; stroke-linejoin: miter; stroke-linecap: square"/>
   </g>
   <g id="patch_4">
    <path d="M 241.2 246.04 
L 241.2 25.44 
" style="fill: none; stroke: #000000; stroke-width: 0.8; stroke-linejoin: miter; stroke-linecap: square"/>
   </g>
   <g id="patch_5">
    <path d="M 101.9 246.04 
L 241.2 246.04 
" style="fill: none; stroke: #000000; stroke-width: 0.8; stroke-linejoin: miter; stroke-linecap: square"/>
   </g>
   <g id="patch_6">
    <path d="M 101.9 25.44 
L 241.2 25.44 
" style="fill: none; stroke: #000000; stroke-width: 0.8; stroke-linejoin: miter; stroke-linecap: square"/>
   </g>
   <g id="text_8">
    <!-- Learnable MSITE -->
    <g transform="translate(121.815625 19.44) scale(0.12 -0.12)">
     <defs>
      <path id="DejaVuSans-4c" d="M 628 4666 
L 1259 4666 
L 1259 531 
L 3531 531 
L 3531 0 
L 628 0 
L 628 4666 
z
" transform="scale(0.015625)"/>
      <path id="DejaVuSans-4d" d="M 628 4666 
L 1569 4666 
L 2759 1491 
L 3956 4666 
L 4897 4666 
L 4897 0 
L 4281 0 
L 4281 4097 
L 3078 897 
L 2444 897 
L 1241 4097 
L 1241 0 
L 628 0 
L 628 4666 
z
" transform="scale(0.015625)"/>
      <path id="DejaVuSans-53" d="M 3425 4513 
L 3425 3897 
Q 3066 4069 2747 4153 
Q 2428 4238 2131 4238 
Q 1616 4238 1336 4038 
Q 1056 3838 1056 3469 
Q 1056 3159 1242 3001 
Q 1428 2844 1947 2747 
L 2328 2669 
Q 3034 2534 3370 2195 
Q 3706 1856 3706 1288 
Q 3706 609 3251 259 
Q 2797 -91 1919 -91 
Q 1588 -91 1214 -16 
Q 841 59 441 206 
L 441 856 
Q 825 641 1194 531 
Q 1563 422 1919 422 
Q 2459 422 2753 634 
Q 3047 847 3047 1241 
Q 3047 1584 2836 1778 
Q 2625 1972 2144 2069 
L 1759 2144 
Q 1053 2284 737 2584 
Q 422 2884 422 3419 
Q 422 4038 858 4394 
Q 1294 4750 2059 4750 
Q 2388 4750 2728 4690 
Q 3069 4631 3425 4513 
z
" transform="scale(0.015625)"/>
      <path id="DejaVuSans-49" d="M 628 4666 
L 1259 4666 
L 1259 0 
L 628 0 
L 628 4666 
z
" transform="scale(0.015625)"/>
      <path id="DejaVuSans-54" d="M -19 4666 
L 3928 4666 
L 3928 4134 
L 2272 4134 
L 2272 0 
L 1638 0 
L 1638 4134 
L -19 4134 
L -19 4666 
z
" transform="scale(0.015625)"/>
      <path id="DejaVuSans-45" d="M 628 4666 
L 3578 4666 
L 3578 4134 
L 1259 4134 
L 1259 2753 
L 3481 2753 
L 3481 2222 
L 1259 2222 
L 1259 531 
L 3634 531 
L 3634 0 
L 628 0 
L 628 4666 
z
" transform="scale(0.015625)"/>
     </defs>
     <use xlink:href="#DejaVuSans-4c"/>
     <use xlink:href="#DejaVuSans-65" x="53.962891"/>
     <use xlink:href="#DejaVuSans-61" x="115.486328"/>
     <use xlink:href="#DejaVuSans-72" x="176.765625"/>
     <use xlink:href="#DejaVuSans-6e" x="216.128906"/>
     <use xlink:href="#DejaVuSans-61" x="279.507812"/>
     <use xlink:href="#DejaVuSans-62" x="340.787109"/>
     <use xlink:href="#DejaVuSans-6c" x="404.263672"/>
     <use xlink:href="#DejaVuSans-65" x="432.046875"/>
     <use xlink:href="#DejaVuSans-20" x="493.570312"/>
     <use xlink:href="#DejaVuSans-4d" x="525.357422"/>
     <use xlink:href="#DejaVuSans-53" x="611.636719"/>
     <use xlink:href="#DejaVuSans-49" x="675.113281"/>
     <use xlink:href="#DejaVuSans-54" x="704.605469"/>
     <use xlink:href="#DejaVuSans-45" x="765.689453"/>
    </g>
   </g>
  </g>
 </g>
 <defs>
  <clipPath id="pd29e5b2d0b">
   <rect x="101.9" y="25.44" width="139.3" height="220.6"/>
  </clipPath>
 </defs>
</svg>
